<svg width="42" height="42" viewBox="0 0 42 42" fill="none" xmlns="http://www.w3.org/2000/svg">
  <rect x="1.5" y="1.5" width="39" height="39" rx="19.5" stroke="#253746" stroke-width="3" />
  <circle cx="21.0001" cy="21.002" r="19.1739" fill="white" />
  <circle cx="21.0002" cy="20.9963" r="17.3478" fill="#253746" />
  <path d="M24.2156 33.784H17.7846C17.6733 33.784 17.563 33.762 17.4601 33.7193C17.3572 33.6767 17.2637 33.6142 17.1849 33.5353C17.1062 33.4565 17.0437 33.3629 17.0011 33.2599C16.9585 33.157 16.9366 33.0466 16.9367 32.9351V28.0459L12.7048 30.4898C12.5097 30.6011 12.279 30.632 12.0616 30.5759C11.8443 30.5169 11.6591 30.3744 11.5463 30.1794L8.33053 24.6059C8.21831 24.4109 8.18801 24.1793 8.24628 23.962C8.30454 23.7446 8.44662 23.5593 8.64131 23.4467L12.8744 21.0014L8.6416 18.556C8.44694 18.4434 8.30494 18.258 8.24677 18.0406C8.18861 17.8233 8.21904 17.5917 8.33139 17.3968L11.546 11.8233C11.6588 11.6288 11.8438 11.4868 12.0608 11.4282C12.2782 11.3702 12.5096 11.4005 12.7048 11.5126L16.9367 13.9579V9.06759C16.9366 8.95613 16.9585 8.84576 17.0011 8.74277C17.0437 8.63979 17.1062 8.54621 17.1849 8.46739C17.2637 8.38856 17.3572 8.32603 17.4601 8.28337C17.563 8.24071 17.6733 8.21875 17.7846 8.21875H24.2156C24.327 8.21875 24.4373 8.24071 24.5402 8.28337C24.6431 8.32603 24.7366 8.38856 24.8153 8.46739C24.8941 8.54621 24.9565 8.63979 24.9991 8.74277C25.0417 8.84576 25.0636 8.95613 25.0636 9.06759V13.9582L29.2961 11.5129C29.3925 11.4571 29.4989 11.4209 29.6094 11.4063C29.7198 11.3917 29.832 11.3991 29.9396 11.4279C30.0472 11.4567 30.148 11.5065 30.2364 11.5743C30.3247 11.6422 30.3989 11.7268 30.4545 11.8233L33.6706 17.3968C33.7831 17.5912 33.8137 17.8232 33.7549 18.0404C33.6966 18.2577 33.5548 18.4431 33.3604 18.556L29.1276 21.0014L33.3601 23.4467C33.5546 23.5595 33.6965 23.7449 33.7547 23.9623C33.8128 24.1796 33.7825 24.4112 33.6703 24.6062L30.4557 30.1777C30.3429 30.3725 30.1575 30.5145 29.9402 30.5728C29.7229 30.631 29.4913 30.6007 29.2963 30.4884L25.0639 28.0431V32.9348C25.0639 33.0463 25.042 33.1567 24.9994 33.2598C24.9568 33.3628 24.8943 33.4564 24.8155 33.5352C24.7367 33.6141 24.6432 33.6766 24.5403 33.7193C24.4374 33.762 24.327 33.784 24.2156 33.784ZM18.6329 32.0863H23.3676V26.5734C23.3676 26.2704 23.5287 25.9898 23.7915 25.8391C23.9206 25.7651 24.0668 25.7261 24.2156 25.7261C24.3644 25.7261 24.5106 25.7651 24.6397 25.8391L29.41 28.5949L31.7775 24.4911L27.007 21.7356C26.8781 21.6613 26.7711 21.5543 26.6967 21.4254C26.6222 21.2965 26.5831 21.1502 26.5831 21.0014C26.5831 20.6983 26.745 20.418 27.007 20.2657L31.7766 17.5099L29.4094 13.4079L24.64 16.1636C24.377 16.3143 24.054 16.3143 23.7918 16.1636C23.6629 16.0889 23.5558 15.9816 23.4814 15.8525C23.4071 15.7234 23.3679 15.577 23.3679 15.4279V9.91643H18.6329V15.4279C18.6329 15.577 18.5937 15.7235 18.5193 15.8526C18.4448 15.9817 18.3378 16.089 18.2088 16.1636C17.9463 16.3143 17.6233 16.3143 17.3605 16.1636L12.5909 13.4079L10.2242 17.5099L14.9944 20.2657C15.1233 20.3404 15.2303 20.4477 15.3047 20.5768C15.3792 20.7059 15.4184 20.8523 15.4186 21.0014C15.4186 21.1503 15.3794 21.2965 15.3049 21.4254C15.2305 21.5543 15.1234 21.6613 14.9944 21.7356L10.2236 24.4928L12.5911 28.5966L17.3605 25.8408C17.4896 25.7668 17.6358 25.7278 17.7846 25.7278C17.9335 25.7278 18.0797 25.7668 18.2088 25.8408C18.3378 25.915 18.4449 26.0219 18.5194 26.1508C18.5939 26.2797 18.633 26.4259 18.6329 26.5748V32.0863Z" fill="white" />
</svg>