<svg width="80" height="80" viewBox="0 0 80 80" fill="none" xmlns="http://www.w3.org/2000/svg">
  <g clip-path="url(#clip0_19_362)">
    <circle cx="40" cy="40" r="39.75" fill="#ED5338" fill-opacity="0.4" stroke="#ED5338" stroke-width="0.5" />
    <g filter="url(#filter0_d_19_362)">
      <circle cx="40" cy="40" r="25" fill="#ED5338" />
      <circle cx="40" cy="40" r="23" stroke="white" stroke-width="4" />
    </g>
    <path d="M32.1361 34.1582C33.5197 31.7383 35.2827 29.5117 36.8765 27.9531C37.9682 29.0488 39.2642 30.7188 40.3851 32.1543C40.6069 32.4356 40.8171 32.7109 41.0214 32.9688C41.29 33.3086 41.7044 33.5078 42.1364 33.502C42.5685 33.4961 42.9771 33.291 43.2398 32.9453C43.4325 32.6934 43.6893 32.3125 43.9579 31.9258C44.1097 31.7031 44.2673 31.4805 44.4132 31.2695C44.7402 30.8066 45.0262 30.4199 45.2539 30.1504C46.4215 31.3691 47.6474 33.2559 48.6049 35.3301C49.6382 37.5684 50.2745 39.8418 50.2745 41.5586C50.2745 47.5938 45.6742 52.1875 39.9998 52.1875C34.2611 52.1875 29.725 47.5938 29.725 41.5586C29.725 39.3613 30.6708 36.7305 32.1361 34.1641V34.1582ZM38.5695 25.6797C37.6237 24.7774 36.1468 24.7715 35.201 25.6738C33.3329 27.4375 31.2896 29.9863 29.7075 32.7637C28.1313 35.5176 26.9229 38.6523 26.9229 41.5586C26.9229 49.0762 32.6498 55 39.9998 55C47.2738 55 53.0767 49.0879 53.0767 41.5586C53.0767 39.2676 52.2652 36.5664 51.1443 34.1465C50.0235 31.7148 48.5114 29.3887 46.9469 27.8711C45.9953 26.9453 44.495 26.9453 43.5434 27.8652C43.0822 28.3106 42.5509 29.0371 42.1248 29.6406L42.0606 29.7344C40.9689 28.3399 39.6728 26.7285 38.5695 25.6797ZM40.099 49.375C41.576 49.375 42.8837 48.9648 44.1155 48.1445C46.5733 46.4219 47.2329 42.9766 45.756 40.2695C45.4932 39.7422 44.8219 39.707 44.4424 40.1523L42.9713 41.8691C42.586 42.3145 41.8913 42.3027 41.5293 41.8398C40.566 40.6094 38.8439 38.4121 37.8631 37.1641C37.4953 36.6953 36.7948 36.6895 36.4211 37.1582C34.4479 39.6484 33.4555 41.2188 33.4555 42.9824C33.4613 46.9961 36.4153 49.375 40.099 49.375Z" fill="white" />
  </g>
  <defs>
    <filter id="filter0_d_19_362" x="11" y="15" width="58" height="58" filterUnits="userSpaceOnUse" color-interpolation-filters="sRGB">
      <feFlood flood-opacity="0" result="BackgroundImageFix" />
      <feColorMatrix in="SourceAlpha" type="matrix" values="0 0 0 0 0 0 0 0 0 0 0 0 0 0 0 0 0 0 127 0" result="hardAlpha" />
      <feOffset dy="4" />
      <feGaussianBlur stdDeviation="2" />
      <feComposite in2="hardAlpha" operator="out" />
      <feColorMatrix type="matrix" values="0 0 0 0 0 0 0 0 0 0 0 0 0 0 0 0 0 0 0.25 0" />
      <feBlend mode="normal" in2="BackgroundImageFix" result="effect1_dropShadow_19_362" />
      <feBlend mode="normal" in="SourceGraphic" in2="effect1_dropShadow_19_362" result="shape" />
    </filter>
    <clipPath id="clip0_19_362">
      <rect width="80" height="80" fill="white" />
    </clipPath>
  </defs>
</svg>