<svg width="80" height="80" viewBox="0 0 80 80" fill="none" xmlns="http://www.w3.org/2000/svg">
  <g clip-path="url(#clip0_19_352)">
    <circle cx="40" cy="40" r="39.75" fill="#3E998F" fill-opacity="0.4" stroke="#3E998F" stroke-width="0.5" />
    <g filter="url(#filter0_d_19_352)">
      <circle cx="40" cy="40" r="25" fill="#3E998F" />
      <circle cx="40" cy="40" r="23" stroke="white" stroke-width="4" />
    </g>
    <path d="M40 35.0654L38.2785 33.3439L37.6691 32.7345C36.5672 31.6326 35.0031 31.1298 33.4695 31.3888C31.1438 31.7748 29.4375 33.7857 29.4375 36.1419V36.4365C29.4375 37.6501 29.8641 38.8181 30.6309 39.7423H33.2258C33.5559 39.7423 33.8504 39.5443 33.9773 39.2447L35.5922 35.3701C35.7191 35.0705 36.0086 34.8724 36.3285 34.8724C36.6484 34.8724 36.948 35.0552 37.0801 35.3498L40.0355 41.9158L42.5188 36.9443C42.6559 36.6701 42.9402 36.4974 43.2449 36.4974C43.5496 36.4974 43.834 36.6701 43.9711 36.9443L45.1492 39.2955C45.2863 39.5697 45.5656 39.7423 45.8754 39.7423H49.3641C50.1309 38.8181 50.5574 37.6501 50.5574 36.4365V36.1419C50.5574 33.7857 48.8512 31.7748 46.5305 31.3888C44.9969 31.1349 43.4277 31.6326 42.3309 32.7345L41.7215 33.3439L40 35.0654ZM50.1562 41.3673H47.6883H45.8805C44.9562 41.3673 44.1133 40.8443 43.702 40.0216L43.25 39.1228L40.7262 44.1705C40.584 44.4498 40.2945 44.6275 39.9848 44.6173C39.675 44.6072 39.3906 44.4244 39.2586 44.14L36.3742 37.7212L35.4805 39.8693C35.0996 40.7732 34.2109 41.3673 33.2309 41.3673H32.3168H29.8438H28.8129C27.65 40.0013 27 38.2544 27 36.4365V36.1419C27 32.5923 29.5645 29.5658 33.0633 28.9818C35.3789 28.5959 37.7352 29.3525 39.3906 31.008L40 31.6173L40.6094 31.008C42.2648 29.3525 44.6211 28.5959 46.9367 28.9818C50.4355 29.5658 53 32.5923 53 36.1419V36.4365C53 38.2544 52.35 39.9962 51.1871 41.3673H50.1562ZM30.4836 42.9923H34.0535L40 48.5427L45.9465 42.9923H49.5164L41.4066 50.5638C41.0258 50.9193 40.523 51.1173 40 51.1173C39.477 51.1173 38.9742 50.9193 38.5934 50.5638L30.4836 42.9923Z" fill="white" />
  </g>
  <defs>
    <filter id="filter0_d_19_352" x="11" y="15" width="58" height="58" filterUnits="userSpaceOnUse" color-interpolation-filters="sRGB">
      <feFlood flood-opacity="0" result="BackgroundImageFix" />
      <feColorMatrix in="SourceAlpha" type="matrix" values="0 0 0 0 0 0 0 0 0 0 0 0 0 0 0 0 0 0 127 0" result="hardAlpha" />
      <feOffset dy="4" />
      <feGaussianBlur stdDeviation="2" />
      <feComposite in2="hardAlpha" operator="out" />
      <feColorMatrix type="matrix" values="0 0 0 0 0 0 0 0 0 0 0 0 0 0 0 0 0 0 0.25 0" />
      <feBlend mode="normal" in2="BackgroundImageFix" result="effect1_dropShadow_19_352" />
      <feBlend mode="normal" in="SourceGraphic" in2="effect1_dropShadow_19_352" result="shape" />
    </filter>
    <clipPath id="clip0_19_352">
      <rect width="80" height="80" fill="white" />
    </clipPath>
  </defs>
</svg>