<svg width="80" height="80" viewBox="0 0 80 80" fill="none" xmlns="http://www.w3.org/2000/svg">
  <g clip-path="url(#clip0_19_357)">
    <circle cx="40" cy="40" r="39.75" fill="#F6BE00" fill-opacity="0.4" stroke="#F6BE00" stroke-width="0.5" />
    <g filter="url(#filter0_d_19_357)">
      <circle cx="40" cy="40" r="25" fill="#F6BE00" />
      <circle cx="40" cy="40" r="23" stroke="white" stroke-width="4" />
    </g>
    <path d="M39.9998 25C39.7288 25 39.4578 25.0589 39.2103 25.1709L28.1164 29.8782C26.8203 30.4262 25.8541 31.7046 25.86 33.2482C25.8894 39.0927 28.2932 49.7859 38.4444 54.6465C39.4283 55.1178 40.5713 55.1178 41.5552 54.6465C51.7064 49.7859 54.1102 39.0927 54.1396 33.2482C54.1455 31.7046 53.1793 30.4262 51.8831 29.8782L40.7834 25.1709C40.5418 25.0589 40.2708 25 39.9998 25ZM39.9998 28.9356V51.2058C31.8694 47.2702 29.6836 38.5566 29.6306 33.3307L39.9998 28.9356Z" fill="white" />
  </g>
  <defs>
    <filter id="filter0_d_19_357" x="11" y="15" width="58" height="58" filterUnits="userSpaceOnUse" color-interpolation-filters="sRGB">
      <feFlood flood-opacity="0" result="BackgroundImageFix" />
      <feColorMatrix in="SourceAlpha" type="matrix" values="0 0 0 0 0 0 0 0 0 0 0 0 0 0 0 0 0 0 127 0" result="hardAlpha" />
      <feOffset dy="4" />
      <feGaussianBlur stdDeviation="2" />
      <feComposite in2="hardAlpha" operator="out" />
      <feColorMatrix type="matrix" values="0 0 0 0 0 0 0 0 0 0 0 0 0 0 0 0 0 0 0.25 0" />
      <feBlend mode="normal" in2="BackgroundImageFix" result="effect1_dropShadow_19_357" />
      <feBlend mode="normal" in="SourceGraphic" in2="effect1_dropShadow_19_357" result="shape" />
    </filter>
    <clipPath id="clip0_19_357">
      <rect width="80" height="80" fill="white" />
    </clipPath>
  </defs>
</svg>